<svg id="svg" version="1.1" xmlns="http://www.w3.org/2000/svg" xmlns:xlink="http://www.w3.org/1999/xlink" width="400" height="400" viewBox="0, 0, 400,400"><g id="svgg"><path id="path0" d="M184.000 103.657 C 173.858 105.451,162.141 109.654,158.000 112.984 C 157.670 113.249,156.418 114.058,155.218 114.780 C 141.816 122.848,125.694 145.943,123.929 159.600 L 123.800 160.600 112.800 160.800 C 102.193 160.993,101.747 161.033,100.320 161.920 C 95.116 165.156,96.187 172.035,102.165 173.773 C 103.823 174.255,106.283 174.400,112.782 174.400 L 121.240 174.400 121.103 179.900 L 120.966 185.400 111.983 185.625 C 102.261 185.868,100.715 186.147,98.877 187.985 C 95.888 190.974,96.570 195.748,100.320 198.080 C 101.740 198.962,102.223 199.008,112.167 199.200 L 122.534 199.400 122.821 200.400 C 122.979 200.950,123.414 202.750,123.789 204.400 C 128.603 225.631,143.964 245.204,163.000 254.364 C 166.764 256.175,166.856 256.214,170.400 257.553 C 181.081 261.587,198.457 262.690,209.800 260.054 C 210.680 259.849,212.030 259.558,212.800 259.406 C 220.669 257.856,232.860 250.770,239.583 243.838 C 240.564 242.827,241.509 242.000,241.683 242.000 C 241.857 242.000,242.000 259.637,242.000 281.192 L 242.000 320.385 242.900 320.604 C 243.395 320.724,250.190 320.773,258.000 320.712 L 272.200 320.600 272.301 213.494 L 272.401 106.388 260.356 106.494 L 248.310 106.600 245.255 114.296 C 241.917 122.705,241.970 122.642,239.978 120.557 C 238.087 118.578,233.032 114.750,229.300 112.470 C 221.585 107.759,214.576 105.151,206.400 103.950 C 202.688 103.405,186.614 103.194,184.000 103.657 M203.433 130.817 C 210.760 132.109,213.005 132.757,217.600 134.906 C 228.734 140.114,237.907 153.204,240.372 167.400 C 240.639 168.940,241.025 171.175,241.229 172.367 C 242.585 180.288,241.206 197.601,238.598 205.400 C 233.118 221.789,223.939 230.056,206.836 234.007 C 203.374 234.807,191.184 234.697,188.023 233.838 C 173.162 229.800,162.022 219.546,155.840 204.216 C 153.598 198.656,151.884 199.252,170.500 199.117 C 188.428 198.987,188.060 199.041,190.236 196.188 C 192.224 193.582,191.422 188.867,188.693 187.107 C 186.636 185.781,184.162 185.600,168.070 185.600 L 152.093 185.600 151.875 184.500 C 151.754 183.895,151.761 181.375,151.889 178.900 L 152.122 174.400 168.084 174.400 C 184.162 174.400,186.636 174.219,188.693 172.893 C 191.422 171.133,192.224 166.418,190.236 163.812 C 188.070 160.972,188.335 161.013,171.300 160.882 C 159.062 160.788,156.000 160.660,156.000 160.244 C 156.000 159.957,156.724 158.241,157.609 156.429 C 166.421 138.398,185.607 127.674,203.433 130.817 " stroke="none" fill="#080808" fill-rule="evenodd"></path><path id="path1" d="M200.000 34.025 C 192.540 34.383,188.433 34.854,179.000 36.433 C 169.390 38.042,166.339 38.796,155.600 42.217 C 116.851 54.561,82.349 82.498,62.011 118.000 C 57.711 125.507,51.200 139.007,51.200 140.417 C 51.200 140.632,50.852 141.572,50.426 142.504 C 49.665 144.173,47.000 152.079,46.012 155.600 C 45.734 156.590,45.365 157.850,45.192 158.400 C 44.118 161.805,42.028 172.161,41.196 178.200 C 40.954 179.960,40.586 182.501,40.378 183.846 C 39.870 187.136,39.895 214.610,40.410 218.836 C 41.260 225.813,41.644 228.671,42.046 231.000 C 47.997 265.476,64.307 297.053,88.827 321.573 C 104.063 336.810,122.113 348.986,141.800 357.309 C 147.431 359.690,157.301 363.318,159.948 363.981 C 160.747 364.181,162.840 364.722,164.600 365.183 C 168.196 366.125,168.966 366.296,176.000 367.716 C 180.854 368.696,183.728 369.138,190.800 369.991 C 192.670 370.216,200.140 370.400,207.400 370.400 C 222.967 370.398,229.561 369.836,240.400 367.587 C 246.727 366.274,247.533 366.091,251.000 365.183 C 252.760 364.722,254.830 364.183,255.600 363.985 C 261.304 362.521,273.153 357.742,283.400 352.771 C 317.077 336.437,346.617 305.548,361.982 270.600 C 362.659 269.060,363.390 267.487,363.606 267.105 C 363.823 266.723,364.000 266.226,364.000 266.001 C 364.000 265.776,364.340 264.828,364.756 263.896 C 368.681 255.090,372.990 238.872,374.772 226.200 C 374.989 224.660,375.395 221.780,375.673 219.800 C 376.315 215.247,376.303 192.599,375.656 187.000 C 374.339 175.601,373.650 171.499,371.523 162.400 C 368.324 148.715,361.454 131.285,354.833 120.055 C 354.155 118.906,353.600 117.881,353.600 117.778 C 353.600 117.356,349.022 110.235,345.760 105.583 C 325.920 77.286,294.943 53.860,263.370 43.276 C 250.374 38.919,244.101 37.401,231.600 35.586 C 229.950 35.346,227.610 34.993,226.400 34.802 C 225.190 34.611,221.500 34.348,218.200 34.219 C 214.900 34.089,211.030 33.918,209.600 33.837 C 208.170 33.756,203.850 33.841,200.000 34.025 M221.200 59.962 C 229.180 60.750,231.895 61.114,234.800 61.783 C 236.450 62.164,239.330 62.824,241.200 63.250 C 243.070 63.677,245.140 64.176,245.800 64.359 C 251.705 65.997,257.244 67.805,259.496 68.829 C 260.428 69.253,261.427 69.600,261.716 69.600 C 262.004 69.600,262.411 69.753,262.620 69.940 C 262.829 70.127,263.795 70.587,264.766 70.963 C 267.498 72.020,273.844 75.153,277.557 77.279 C 279.404 78.335,280.985 79.200,281.071 79.200 C 281.405 79.200,290.000 85.062,293.600 87.746 C 304.791 96.088,316.564 108.165,324.653 119.600 C 327.667 123.861,329.600 126.775,329.600 127.058 C 329.600 127.178,329.939 127.754,330.353 128.338 C 331.855 130.455,336.223 138.515,337.758 142.000 C 338.388 143.430,339.230 145.335,339.631 146.232 C 340.893 149.064,342.027 152.072,343.388 156.200 C 346.616 165.991,347.310 168.763,349.202 179.400 C 352.064 195.491,351.383 218.626,347.595 234.000 C 347.406 234.770,347.042 236.300,346.787 237.400 C 346.532 238.500,346.182 239.850,346.008 240.400 C 345.835 240.950,345.471 242.210,345.201 243.200 C 344.930 244.190,344.557 245.360,344.371 245.800 C 344.185 246.240,343.563 248.040,342.987 249.800 C 342.411 251.560,341.711 253.540,341.430 254.200 C 341.149 254.860,340.322 256.840,339.591 258.600 C 324.557 294.803,290.986 325.890,254.000 337.858 C 253.010 338.178,251.840 338.591,251.400 338.775 C 250.960 338.958,249.880 339.294,249.000 339.521 C 246.740 340.104,244.250 340.738,242.500 341.175 C 219.257 346.982,193.384 346.698,170.200 340.381 C 169.540 340.201,168.190 339.841,167.200 339.582 C 166.210 339.322,165.040 338.958,164.600 338.775 C 164.160 338.591,162.990 338.178,162.000 337.858 C 135.572 329.306,107.713 308.688,91.943 286.010 C 90.984 284.632,89.705 282.799,89.100 281.938 C 88.495 281.076,88.000 280.301,88.000 280.214 C 88.000 280.127,87.309 279.009,86.464 277.728 C 78.238 265.262,70.829 246.314,67.646 229.600 C 67.415 228.390,67.122 226.860,66.994 226.200 C 64.146 211.522,64.574 187.842,67.955 173.000 C 68.155 172.120,68.515 170.500,68.755 169.400 C 69.157 167.552,69.519 166.121,70.374 163.000 C 81.241 123.330,113.150 87.024,151.200 71.039 C 153.730 69.976,156.340 68.873,157.000 68.586 C 157.660 68.300,158.920 67.846,159.800 67.578 C 160.680 67.309,161.760 66.950,162.200 66.781 C 162.640 66.611,163.360 66.347,163.800 66.193 C 164.643 65.900,169.489 64.605,172.200 63.950 C 173.080 63.737,174.430 63.400,175.200 63.200 C 175.970 63.000,177.140 62.725,177.800 62.589 C 178.460 62.453,180.170 62.057,181.600 61.709 C 184.403 61.027,187.895 60.604,195.320 60.047 C 197.916 59.853,200.166 59.567,200.320 59.414 C 200.675 59.058,216.170 59.465,221.200 59.962 " stroke="none" fill="#f4c415" fill-rule="evenodd"></path><path id="path2" d="M0.000 200.000 L 0.000 400.000 200.000 400.000 L 400.000 400.000 400.000 200.000 L 400.000 0.000 200.000 0.000 L 0.000 0.000 0.000 200.000 M223.600 34.035 C 226.130 34.257,229.190 34.606,230.400 34.810 C 231.610 35.015,234.940 35.561,237.800 36.023 C 240.660 36.486,243.630 37.020,244.400 37.209 C 245.170 37.398,246.700 37.763,247.800 38.020 C 272.997 43.901,300.708 58.513,320.183 76.185 C 404.776 152.949,393.200 285.493,296.600 346.206 C 286.989 352.246,266.095 361.738,257.400 364.014 C 256.740 364.186,254.850 364.707,253.200 365.171 C 249.227 366.288,243.115 367.634,235.000 369.178 C 215.846 372.822,188.359 371.631,166.400 366.204 C 108.693 351.942,62.717 307.452,45.693 249.400 C 44.973 246.945,44.526 245.169,42.776 237.800 C 42.567 236.920,42.111 234.580,41.763 232.600 C 26.551 146.175,77.058 64.780,161.400 39.799 C 168.503 37.695,178.212 35.795,190.200 34.162 C 196.550 33.297,214.423 33.229,223.600 34.035 M204.000 59.862 C 200.747 60.022,192.441 60.713,188.157 61.181 C 170.412 63.116,146.332 72.151,130.200 82.927 C 94.174 106.991,72.288 142.170,66.322 185.600 C 65.625 190.676,65.633 213.251,66.334 218.200 C 69.973 243.891,76.768 262.365,89.728 281.800 C 130.253 342.577,210.860 362.512,275.600 327.768 C 353.046 286.206,374.616 184.125,320.566 114.969 C 298.710 87.005,271.842 70.565,234.400 62.248 C 227.933 60.811,211.280 59.504,204.000 59.862 M205.200 103.217 C 217.534 104.760,233.005 112.210,240.370 120.154 C 241.794 121.691,241.710 121.811,244.859 113.758 C 247.285 107.555,247.934 106.253,248.756 105.941 C 250.515 105.272,272.360 105.689,272.809 106.400 C 273.415 107.361,273.327 320.113,272.720 320.720 C 272.212 321.228,243.521 321.451,242.233 320.957 C 241.662 320.738,241.600 316.930,241.600 281.957 C 241.600 260.641,241.455 243.200,241.278 243.200 C 241.102 243.200,240.337 243.848,239.578 244.641 C 219.945 265.164,183.110 268.038,155.913 251.170 C 140.933 241.879,127.160 222.344,123.218 204.800 C 122.947 203.590,122.554 201.925,122.347 201.100 L 121.969 199.600 112.172 199.600 C 100.163 199.600,98.922 199.253,97.152 195.400 C 95.600 192.021,96.741 188.374,99.938 186.494 L 101.800 185.400 111.100 185.273 L 120.400 185.147 120.400 181.829 C 120.400 180.005,120.513 177.689,120.651 176.682 L 120.901 174.853 111.351 174.727 L 101.800 174.600 99.938 173.506 C 94.994 170.599,95.371 163.553,100.600 161.152 C 102.020 160.500,103.370 160.416,112.600 160.407 L 123.000 160.396 124.529 155.498 C 135.761 119.509,168.068 98.572,205.200 103.217 M188.800 131.823 C 175.925 134.592,164.721 143.572,158.386 156.200 L 156.379 160.200 171.953 160.400 L 187.527 160.600 189.021 161.810 C 193.146 165.150,192.893 170.936,188.504 173.665 L 187.000 174.600 169.941 174.720 L 152.883 174.839 152.647 175.720 C 152.517 176.204,152.408 178.526,152.405 180.880 L 152.400 185.161 169.700 185.280 L 187.000 185.400 188.504 186.335 C 193.308 189.322,193.031 196.158,187.996 198.858 C 186.715 199.545,185.435 199.600,170.706 199.600 C 161.958 199.600,154.800 199.686,154.800 199.791 C 154.800 201.027,158.683 209.407,160.920 213.000 C 172.679 231.880,194.945 239.043,216.000 230.718 C 247.954 218.084,250.526 154.760,219.819 136.705 C 211.941 132.073,197.907 129.864,188.800 131.823 " stroke="none" fill="#fbfbfb" fill-rule="evenodd"></path><path id="path3" d="M199.000 33.608 C 191.141 33.934,190.522 34.006,178.200 36.030 C 110.432 47.165,54.137 102.882,41.778 171.049 C 38.056 191.581,38.476 219.691,42.776 237.800 C 44.526 245.169,44.973 246.945,45.693 249.400 C 61.482 303.243,100.373 343.873,154.092 362.646 C 177.545 370.842,211.745 373.603,235.000 369.178 C 243.115 367.634,249.227 366.288,253.200 365.171 C 254.850 364.707,256.740 364.186,257.400 364.014 C 266.095 361.738,286.989 352.246,296.600 346.206 C 356.235 308.725,386.396 241.273,374.228 172.600 C 364.058 115.206,324.052 66.361,269.800 45.102 C 262.820 42.366,253.318 39.308,247.800 38.020 C 246.700 37.763,245.170 37.398,244.400 37.209 C 243.630 37.020,240.660 36.486,237.800 36.023 C 234.940 35.561,231.610 35.015,230.400 34.810 C 223.704 33.680,209.970 33.154,199.000 33.608 M218.200 34.219 C 221.500 34.348,225.190 34.611,226.400 34.802 C 227.610 34.993,229.950 35.346,231.600 35.586 C 244.101 37.401,250.374 38.919,263.370 43.276 C 294.943 53.860,325.920 77.286,345.760 105.583 C 349.022 110.235,353.600 117.356,353.600 117.778 C 353.600 117.881,354.155 118.906,354.833 120.055 C 361.454 131.285,368.324 148.715,371.523 162.400 C 373.650 171.499,374.339 175.601,375.656 187.000 C 376.303 192.599,376.315 215.247,375.673 219.800 C 375.395 221.780,374.989 224.660,374.772 226.200 C 372.990 238.872,368.681 255.090,364.756 263.896 C 364.340 264.828,364.000 265.776,364.000 266.001 C 364.000 266.226,363.823 266.723,363.606 267.105 C 363.390 267.487,362.659 269.060,361.982 270.600 C 346.617 305.548,317.077 336.437,283.400 352.771 C 273.153 357.742,261.304 362.521,255.600 363.985 C 254.830 364.183,252.760 364.722,251.000 365.183 C 247.533 366.091,246.727 366.274,240.400 367.587 C 229.561 369.836,222.967 370.398,207.400 370.400 C 200.140 370.400,192.670 370.216,190.800 369.991 C 183.728 369.138,180.854 368.696,176.000 367.716 C 168.966 366.296,168.196 366.125,164.600 365.183 C 162.840 364.722,160.747 364.181,159.948 363.981 C 152.487 362.113,134.664 354.519,124.741 348.979 C 116.076 344.142,105.959 336.952,97.308 329.483 C 74.462 309.759,56.423 282.275,47.637 253.800 C 45.641 247.329,45.178 245.654,44.044 240.800 C 42.327 233.456,41.810 230.327,40.410 218.836 C 39.895 214.610,39.870 187.136,40.378 183.846 C 40.586 182.501,40.954 179.960,41.196 178.200 C 42.028 172.161,44.118 161.805,45.192 158.400 C 45.365 157.850,45.734 156.590,46.012 155.600 C 47.000 152.079,49.665 144.173,50.426 142.504 C 50.852 141.572,51.200 140.632,51.200 140.417 C 51.200 139.007,57.711 125.507,62.011 118.000 C 82.349 82.498,116.851 54.561,155.600 42.217 C 163.589 39.672,165.210 39.215,170.500 38.014 C 174.168 37.181,182.283 35.830,189.800 34.799 C 193.860 34.243,206.184 33.644,209.600 33.837 C 211.030 33.918,214.900 34.089,218.200 34.219 M200.320 59.414 C 200.166 59.567,197.916 59.853,195.320 60.047 C 187.895 60.604,184.403 61.027,181.600 61.709 C 180.170 62.057,178.460 62.453,177.800 62.589 C 177.140 62.725,175.970 63.000,175.200 63.200 C 174.430 63.400,173.080 63.737,172.200 63.950 C 169.489 64.605,164.643 65.900,163.800 66.193 C 163.360 66.347,162.640 66.611,162.200 66.781 C 161.760 66.950,160.680 67.309,159.800 67.578 C 158.920 67.846,157.660 68.300,157.000 68.586 C 156.340 68.873,153.730 69.976,151.200 71.039 C 128.383 80.625,106.578 98.316,91.344 119.600 C 82.333 132.190,74.206 149.009,70.374 163.000 C 69.519 166.121,69.157 167.552,68.755 169.400 C 68.515 170.500,68.155 172.120,67.955 173.000 C 64.574 187.842,64.146 211.522,66.994 226.200 C 67.122 226.860,67.415 228.390,67.646 229.600 C 70.829 246.314,78.238 265.262,86.464 277.728 C 87.309 279.009,88.000 280.127,88.000 280.214 C 88.000 280.301,88.495 281.076,89.100 281.938 C 89.705 282.799,90.984 284.632,91.943 286.010 C 107.713 308.688,135.572 329.306,162.000 337.858 C 162.990 338.178,164.160 338.591,164.600 338.775 C 165.040 338.958,166.210 339.322,167.200 339.582 C 168.190 339.841,169.540 340.201,170.200 340.381 C 193.384 346.698,219.257 346.982,242.500 341.175 C 244.250 340.738,246.740 340.104,249.000 339.521 C 249.880 339.294,250.960 338.958,251.400 338.775 C 251.840 338.591,253.010 338.178,254.000 337.858 C 290.986 325.890,324.557 294.803,339.591 258.600 C 340.322 256.840,341.149 254.860,341.430 254.200 C 341.711 253.540,342.411 251.560,342.987 249.800 C 343.563 248.040,344.185 246.240,344.371 245.800 C 344.557 245.360,344.930 244.190,345.201 243.200 C 345.471 242.210,345.835 240.950,346.008 240.400 C 346.182 239.850,346.532 238.500,346.787 237.400 C 347.042 236.300,347.406 234.770,347.595 234.000 C 351.383 218.626,352.064 195.491,349.202 179.400 C 347.310 168.763,346.616 165.991,343.388 156.200 C 342.027 152.072,340.893 149.064,339.631 146.232 C 339.230 145.335,338.388 143.430,337.758 142.000 C 336.223 138.515,331.855 130.455,330.353 128.338 C 329.939 127.754,329.600 127.178,329.600 127.058 C 329.600 126.775,327.667 123.861,324.653 119.600 C 316.564 108.165,304.791 96.088,293.600 87.746 C 290.000 85.062,281.405 79.200,281.071 79.200 C 280.985 79.200,279.404 78.335,277.557 77.279 C 273.844 75.153,267.498 72.020,264.766 70.963 C 263.795 70.587,262.829 70.127,262.620 69.940 C 262.411 69.753,262.004 69.600,261.716 69.600 C 261.427 69.600,260.428 69.253,259.496 68.829 C 257.244 67.805,251.705 65.997,245.800 64.359 C 245.140 64.176,243.070 63.677,241.200 63.250 C 239.330 62.824,236.450 62.164,234.800 61.783 C 231.895 61.114,229.180 60.750,221.200 59.962 C 216.170 59.465,200.675 59.058,200.320 59.414 M220.000 60.432 C 229.860 61.194,231.546 61.480,243.600 64.434 C 299.174 78.053,342.106 126.665,349.374 184.200 C 361.776 282.390,273.075 363.029,176.492 341.367 C 120.362 328.778,76.444 282.152,67.449 225.600 C 65.950 216.180,65.824 214.361,65.812 202.000 C 65.760 147.495,95.627 99.266,144.690 74.632 C 157.333 68.283,176.003 62.506,188.157 61.181 C 202.135 59.656,208.130 59.515,220.000 60.432 M254.700 105.899 C 257.835 105.967,262.965 105.967,266.100 105.899 C 269.235 105.832,266.670 105.776,260.400 105.776 C 254.130 105.776,251.565 105.832,254.700 105.899 M272.997 213.600 C 272.997 272.450,273.043 296.525,273.100 267.100 C 273.157 237.675,273.157 189.525,273.100 160.100 C 273.043 130.675,272.997 154.750,272.997 213.600 M143.787 123.300 L 141.400 125.800 143.900 123.413 C 146.222 121.195,146.583 120.800,146.287 120.800 C 146.226 120.800,145.101 121.925,143.787 123.300 M120.514 179.000 C 120.517 180.100,120.595 180.503,120.687 179.895 C 120.779 179.286,120.777 178.386,120.682 177.895 C 120.587 177.403,120.511 177.900,120.514 179.000 M152.109 182.400 C 152.109 183.390,152.187 183.795,152.282 183.300 C 152.378 182.805,152.378 181.995,152.282 181.500 C 152.187 181.005,152.109 181.410,152.109 182.400 M195.300 234.291 C 196.125 234.378,197.475 234.378,198.300 234.291 C 199.125 234.205,198.450 234.134,196.800 234.134 C 195.150 234.134,194.475 234.205,195.300 234.291 M200.100 261.876 C 200.485 261.976,201.115 261.976,201.500 261.876 C 201.885 261.775,201.570 261.693,200.800 261.693 C 200.030 261.693,199.715 261.775,200.100 261.876 " stroke="none" fill="#fce396" fill-rule="evenodd"></path><path id="path4" d="M187.600 102.826 C 158.441 105.524,134.329 125.589,124.706 155.163 L 123.002 160.400 113.001 160.402 C 98.810 160.405,95.415 162.129,96.646 168.706 C 97.595 173.778,99.513 174.567,111.308 174.737 L 120.816 174.874 120.708 180.001 L 120.600 185.128 111.200 185.264 C 99.526 185.433,97.593 186.234,96.646 191.294 C 95.423 197.827,98.840 199.595,112.700 199.598 C 122.109 199.600,122.400 199.624,122.400 200.394 C 122.400 201.583,123.151 204.496,124.714 209.375 C 136.884 247.350,172.563 268.541,210.663 260.422 C 221.117 258.194,235.084 250.419,239.845 244.176 C 240.423 243.419,241.054 242.800,241.247 242.800 C 241.448 242.800,241.600 259.548,241.600 281.753 L 241.600 320.707 242.500 320.948 C 243.680 321.264,271.345 321.273,272.167 320.957 C 272.742 320.737,272.800 310.884,272.800 213.357 L 272.800 106.000 260.464 106.000 L 248.128 106.000 247.721 106.900 C 247.497 107.395,246.184 110.680,244.804 114.200 C 241.711 122.087,242.089 121.726,239.397 119.363 C 224.816 106.564,207.378 100.996,187.600 102.826 M206.400 103.950 C 214.576 105.151,221.585 107.759,229.300 112.470 C 233.032 114.750,238.087 118.578,239.978 120.557 C 241.970 122.642,241.917 122.705,245.255 114.296 L 248.310 106.600 260.356 106.494 L 272.401 106.388 272.301 213.494 L 272.200 320.600 258.000 320.712 C 250.190 320.773,243.395 320.724,242.900 320.604 L 242.000 320.385 242.000 281.192 C 242.000 259.637,241.857 242.000,241.683 242.000 C 241.509 242.000,240.564 242.827,239.583 243.838 C 232.860 250.770,220.669 257.856,212.800 259.406 C 212.030 259.558,210.680 259.849,209.800 260.054 C 203.554 261.505,192.421 261.920,185.575 260.956 C 176.482 259.676,174.448 259.167,167.400 256.409 C 146.605 248.271,128.967 227.237,123.789 204.400 C 123.414 202.750,122.979 200.950,122.821 200.400 L 122.534 199.400 112.167 199.200 C 102.223 199.008,101.740 198.962,100.320 198.080 C 96.570 195.748,95.888 190.974,98.877 187.985 C 100.715 186.147,102.261 185.868,111.983 185.625 L 120.966 185.400 121.103 179.900 L 121.240 174.400 112.782 174.400 C 106.283 174.400,103.823 174.255,102.165 173.773 C 96.187 172.035,95.116 165.156,100.320 161.920 C 101.747 161.033,102.193 160.993,112.800 160.800 L 123.800 160.600 123.929 159.600 C 124.054 158.634,126.085 152.234,126.786 150.600 C 133.666 134.548,143.992 121.538,155.218 114.780 C 156.418 114.058,157.670 113.249,158.000 112.984 C 162.141 109.654,173.858 105.451,184.000 103.657 C 186.614 103.194,202.688 103.405,206.400 103.950 M190.200 130.902 C 176.037 133.678,164.194 142.954,157.609 156.429 C 156.724 158.241,156.000 159.957,156.000 160.244 C 156.000 160.660,159.062 160.788,171.300 160.882 C 188.335 161.013,188.070 160.972,190.236 163.812 C 192.224 166.418,191.422 171.133,188.693 172.893 C 186.636 174.219,184.162 174.400,168.084 174.400 L 152.122 174.400 151.889 178.900 C 151.761 181.375,151.754 183.895,151.875 184.500 L 152.093 185.600 168.070 185.600 C 184.162 185.600,186.636 185.781,188.693 187.107 C 191.422 188.867,192.224 193.582,190.236 196.188 C 188.060 199.041,188.428 198.987,170.500 199.117 C 151.884 199.252,153.598 198.656,155.840 204.216 C 162.022 219.546,173.162 229.800,188.023 233.838 C 191.184 234.697,203.374 234.807,206.836 234.007 C 230.591 228.519,241.535 212.382,241.586 182.767 C 241.594 178.238,241.433 173.558,241.229 172.367 C 241.025 171.175,240.639 168.940,240.372 167.400 C 237.907 153.204,228.734 140.114,217.600 134.906 C 213.005 132.757,210.760 132.109,203.433 130.817 C 200.571 130.313,192.959 130.361,190.200 130.902 M206.000 131.847 C 232.397 136.033,246.694 164.741,239.643 199.400 C 234.831 223.053,215.921 236.956,192.561 234.016 C 175.798 231.906,159.065 217.049,155.060 200.721 L 154.795 199.641 171.161 199.521 L 187.527 199.400 189.021 198.190 C 193.182 194.821,192.909 189.109,188.462 186.494 L 186.600 185.400 169.538 185.277 L 152.475 185.153 152.229 184.171 C 151.992 183.229,152.260 177.542,152.627 175.724 L 152.803 174.847 169.702 174.724 L 186.600 174.600 188.462 173.506 C 192.909 170.891,193.182 165.179,189.021 161.810 L 187.527 160.600 171.958 160.400 L 156.388 160.200 157.822 157.200 C 167.137 137.706,184.692 128.468,206.000 131.847 " stroke="none" fill="#999999" fill-rule="evenodd"></path></g></svg>